# xmcd
#
# Track frame offsets:
#	150
#	12088
#	24538
#	38108
#	56338
#	72625
#	85783
#	105663
#	126775
#	138813
#	154225
#	172908
#	191075
#	209138
#	222883
#	237075
#
# Disc length: 3395
#
# Revision: 3
# Processed by: cddbd v1.5.1PL0 Copyright (c) Steve Scherf et al.
# Submitted via: VisiTrax 2.9.5.181 - For more info visit www.synapsa.com
# Normalized: r2:DSETVAR1
#
DISCID=db0d4110
DTITLE=Various Artist - Soul Collection - Vol. 2
DYEAR=1900
DGENRE=Soul
TTITLE0=Ben E. King and The Drifters - Saturday Night At The Movies
TTITLE1=The Platters - Twilight Time
TTITLE2=Percy Sledge - My Special Prayer
TTITLE3=The Velvettes - Running Out Of Luck
TTITLE4=Harold Melvin and The Blue Notes - The Love Is Lost
TTITLE5=Billy Ocean - Whose Little Girl Are You
TTITLE6=New Miracles - Fun Time
TTITLE7=The Originals - Take The Only Way Out
TTITLE8=Sam and Dave - Hold On I'm Coming
TTITLE9=Gladys Knight and The Pips - I've Got To Use My Imagination
TTITLE10=Sisters Love - No More Broken Hearts
TTITLE11=Bobby Taylor and The Vancouvers - Do Unto Others
TTITLE12=The Marvelettes - Just In The Nick Of Time
TTITLE13=George McCrae - I Can't Leave You Alone
TTITLE14=Martha Reeves and C.C. Cameron - You're All I Need To Get By
TTITLE15=Supremes - Crazy 'Bout The Guy
EXTD=
EXTT0=
EXTT1=
EXTT2=
EXTT3=
EXTT4=
EXTT5=
EXTT6=
EXTT7=
EXTT8=
EXTT9=
EXTT10=
EXTT11=
EXTT12=
EXTT13=
EXTT14=
EXTT15=
PLAYORDER=
